<svg id="Conduit_Division" data-name="Conduit Division" xmlns="http://www.w3.org/2000/svg" xmlns:xlink="http://www.w3.org/1999/xlink" viewBox="0 0 571.12 249.58"><defs><style>.cls-1{fill:url(#linear-gradient);}.cls-2{fill:url(#linear-gradient-2);}.cls-3{fill:url(#linear-gradient-3);}.cls-4{fill:url(#linear-gradient-4);}.cls-5{fill:url(#linear-gradient-5);}.cls-6{fill:url(#linear-gradient-6);}.cls-7{fill:url(#linear-gradient-7);}.cls-8{fill:url(#linear-gradient-8);}.cls-9{fill:#ee3e34;}.cls-10{fill:url(#linear-gradient-9);}.cls-11,.cls-23{fill:#221f1f;}.cls-11,.cls-12,.cls-13,.cls-14,.cls-15,.cls-16,.cls-17{fill-rule:evenodd;}.cls-12{fill:url(#linear-gradient-10);}.cls-13{fill:url(#linear-gradient-11);}.cls-14{fill:url(#linear-gradient-12);}.cls-15{fill:url(#linear-gradient-13);}.cls-16{fill:url(#linear-gradient-14);}.cls-17{fill:url(#linear-gradient-15);}.cls-18{fill:url(#linear-gradient-16);}.cls-19{fill:url(#linear-gradient-17);}.cls-20{fill:url(#linear-gradient-18);}.cls-21{fill:url(#linear-gradient-19);}.cls-22{fill:#fff;}.cls-24{fill:#500;}.cls-25{fill:#e6e6e6;}.cls-26{fill:#231f20;}.cls-27{fill:url(#linear-gradient-20);}</style><linearGradient id="linear-gradient" x1="139.39" y1="188.62" x2="206.16" y2="419.7" gradientUnits="userSpaceOnUse"><stop offset="0" stop-color="#eeefef"/><stop offset="1" stop-color="#9c9c9c"/></linearGradient><linearGradient id="linear-gradient-2" x1="114.69" y1="75.22" x2="114.69" y2="28.1" gradientUnits="userSpaceOnUse"><stop offset="0" stop-color="#d2d2d2"/><stop offset="1" stop-color="#a6a6a6"/></linearGradient><linearGradient id="linear-gradient-3" x1="229.78" y1="292.63" x2="229.78" y2="257.79" gradientUnits="userSpaceOnUse"><stop offset="0" stop-color="#d2d2d2"/><stop offset="1" stop-color="#707070"/></linearGradient><linearGradient id="linear-gradient-4" x1="168.7" y1="193.29" x2="179.7" y2="276.2" gradientUnits="userSpaceOnUse"><stop offset="0" stop-color="#e8e8e8"/><stop offset="0.74" stop-color="#636363"/><stop offset="1" stop-color="#ababab"/></linearGradient><linearGradient id="linear-gradient-5" x1="118.96" y1="287.31" x2="146.52" y2="279.48" gradientUnits="userSpaceOnUse"><stop offset="0" stop-color="#d2d2d2"/><stop offset="0.75" stop-color="#828282"/><stop offset="1" stop-color="#bababa"/></linearGradient><linearGradient id="linear-gradient-6" x1="145.1" y1="424.86" x2="145.1" y2="285.99" gradientUnits="userSpaceOnUse"><stop offset="0" stop-color="#e6e6e6"/><stop offset="1" stop-color="#8f8f8f"/></linearGradient><linearGradient id="linear-gradient-7" x1="171.77" y1="300.66" x2="207.06" y2="422.84" gradientUnits="userSpaceOnUse"><stop offset="0" stop-color="#aeaeaf"/><stop offset="1" stop-color="#404040"/></linearGradient><linearGradient id="linear-gradient-8" x1="39.21" y1="92.94" x2="31.63" y2="97.9" gradientUnits="userSpaceOnUse"><stop offset="0" stop-color="#929497" stop-opacity="0"/><stop offset="1" stop-color="#808184"/></linearGradient><linearGradient id="linear-gradient-9" x1="174.25" y1="329.38" x2="196.18" y2="405.28" gradientUnits="userSpaceOnUse"><stop offset="0" stop-color="#cd342c"/><stop offset="1" stop-color="#821918"/></linearGradient><linearGradient id="linear-gradient-10" x1="149.83" y1="191.59" x2="149.83" y2="419.91" gradientUnits="userSpaceOnUse"><stop offset="0" stop-color="#404041"/><stop offset="1" stop-color="#231f20"/></linearGradient><linearGradient id="linear-gradient-11" x1="163.64" y1="191.02" x2="163.64" y2="420.6" xlink:href="#linear-gradient-10"/><linearGradient id="linear-gradient-12" x1="175.68" y1="191.73" x2="175.68" y2="419.79" xlink:href="#linear-gradient-10"/><linearGradient id="linear-gradient-13" x1="182.49" y1="191.82" x2="182.49" y2="419.7" xlink:href="#linear-gradient-10"/><linearGradient id="linear-gradient-14" x1="205.54" y1="191.76" x2="205.54" y2="419.75" xlink:href="#linear-gradient-10"/><linearGradient id="linear-gradient-15" x1="108.89" y1="10.89" x2="108.89" y2="238.15" xlink:href="#linear-gradient-10"/><linearGradient id="linear-gradient-16" x1="83.86" y1="10.89" x2="83.86" y2="238.15" xlink:href="#linear-gradient-10"/><linearGradient id="linear-gradient-17" x1="92.2" y1="10.89" x2="92.2" y2="238.15" xlink:href="#linear-gradient-10"/><linearGradient id="linear-gradient-18" x1="100.55" y1="10.89" x2="100.55" y2="238.15" xlink:href="#linear-gradient-10"/><linearGradient id="linear-gradient-19" x1="180.03" y1="191.44" x2="180.03" y2="421.19" gradientUnits="userSpaceOnUse"><stop offset="0" stop-color="#404041"/><stop offset="1" stop-color="#302d2f"/></linearGradient><linearGradient id="linear-gradient-20" x1="273.86" y1="208.87" x2="206.13" y2="428.41" gradientUnits="userSpaceOnUse"><stop offset="0" stop-color="#e0e0e0"/><stop offset="0.66" stop-color="#616264"/><stop offset="1" stop-color="#a6a6a6"/></linearGradient></defs><path class="cls-1" d="M249.26,278.27l-9.55,4.78a24.82,24.82,0,0,1-10.18,2.42h0a14.88,14.88,0,0,1-4.89-.78,18,18,0,0,1-2.72-1.64c-2.58-1.93-5.3-5.17-5.19-8.48l0-.4,0-.38c-.24-2.79,4.73-9.45,9.32-13.53l2.39-2.12V207.27l-2.8-2c-.84-.59-20.87-14.63-43.93-21.91a47.33,47.33,0,0,0-14.25-2.17,52.7,52.7,0,0,0-26.8,7.54c-14.9,9-23.78,24.87-24.35,43.55v.2a52.24,52.24,0,0,0,26.3,45.14c-.8,2.5-3.18,4.64-4.31,5.54-.42.33-.87.66-1.34,1a15.59,15.59,0,0,1-7,1.41,34.2,34.2,0,0,1-10.74-1.95l-8.77-3,.07,95.57,0,.25a35.42,35.42,0,0,0,12.83,25,50.35,50.35,0,0,0,5.91,4.32l.26.16,50,24.88,50-24.75a32.22,32.22,0,0,0,6.91-4.75c6.9-6,11.54-15.19,12.89-24.63h0l-.3-61.28Z" transform="translate(-110.44 -181.21)"/><polygon class="cls-2" points="117.97 26.06 111.58 29.53 111.41 74.14 117.97 76.93 117.97 26.06"/><path class="cls-3" d="M210.33,274.39c-.18,5.63,3.42,10.71,7.89,14a23.68,23.68,0,0,0,4.1,2.42c7.51,2.79,15.56.52,20.34-1.88l6.6-10.69-9.55,4.78a23.45,23.45,0,0,1-10,2.46h0a14.9,14.9,0,0,1-4.9-.78,10.79,10.79,0,0,1-2.83-1.54c-2.59-1.93-5.41-5.31-5.3-8.62l0-.4,0-.58c-.24-2.78,5.05-9.54,9.64-13.62l2.07-1.83-6.55-2.79S209.63,266.16,210.33,274.39Z" transform="translate(-110.44 -181.21)"/><path class="cls-4" d="M123.11,232.54c.47-15.29,7.23-29.68,21.16-38.09,11.36-6.71,24.26-8.31,35.64-4.72,22.34,7.05,42.11,21,42.11,21l6.39-3.47s-21.67-16-46.51-23.85a47.33,47.33,0,0,0-14.25-2.17,52.8,52.8,0,0,0-26.8,7.54c-14.9,9-23.78,24.87-24.35,43.55v.2a52.24,52.24,0,0,0,26.3,45.14l6.17-4.23A45.8,45.8,0,0,1,123.11,232.54Z" transform="translate(-110.44 -181.21)"/><path class="cls-5" d="M140.51,289.91c.7-.46,1.41-1,2.09-1.51,3.86-3.08,7.19-8.21,7.19-13.2l-7,2.48c-.8,2.5-3.18,4.64-4.31,5.54-.42.34-.87.67-1.34,1a15.58,15.58,0,0,1-7,1.42,34.23,34.23,0,0,1-10.74-2l-9-3.06,6.84,9.31C124.1,292.26,133.45,293.67,140.51,289.91Z" transform="translate(-110.44 -181.21)"/><path class="cls-6" d="M133,400.17a41.87,41.87,0,0,1-5.11-3.73A28.92,28.92,0,0,1,117.34,376l0-60.53,0-25.52-6.84-9.31.09,95.82h0a35.42,35.42,0,0,0,12.83,25,51.69,51.69,0,0,0,6.06,4.42l.27.17,49.86,24.77.22-7.34Z" transform="translate(-110.44 -181.21)"/><path class="cls-7" d="M249.09,315.38l.17-37.11L242,290.14s-10.58,13.55-34.5,29.18h24.1l0,54.65c0,6.11-5.87,13.88-14,18l-38,19.24-39.32-19.85c-7.64-3.86-12.11-9.84-12.11-14.18l.05-15.74-17.64,11.92v2.82l0,.25a35.42,35.42,0,0,0,12.83,25,50.35,50.35,0,0,0,5.91,4.32l.26.16,50,24.88,50-24.75a32.22,32.22,0,0,0,6.91-4.75c6.9-6,11.54-15.19,12.89-24.63Z" transform="translate(-110.44 -181.21)"/><polygon class="cls-8" points="38.53 92.24 32.35 96.47 39.35 93.99 38.53 92.24"/><path class="cls-9" d="M128.29,319.32H231.6l0,54.65c0,6.11-5.87,13.88-14,18l-38,19.24-39.32-19.85c-7.64-3.86-12.11-9.84-12.11-14.18Z" transform="translate(-110.44 -181.21)"/><path class="cls-10" d="M231.6,319.32H207.5a246,246,0,0,1-34.23,18.57,393.72,393.72,0,0,0-45.12,23.54l-.05,15.74c0,4.34,4.47,10.32,12.11,14.18l39.32,19.85,38-19.24c8.11-4.11,14-11.88,14-18Z" transform="translate(-110.44 -181.21)"/><path class="cls-11" d="M226.14,282a6.22,6.22,0,1,1,6.24-6.22,6,6,0,0,1-6.24,6.22m0-11c-2.47,0-4.58,1.53-4.58,4.77,0,3.48,2.11,4.79,4.58,4.78a4.78,4.78,0,0,0,0-9.55Z" transform="translate(-110.44 -181.21)"/><path class="cls-12" d="M157.86,315.49l-.07-.07c-1.26-1.42-.15-4.85-1.2-5.65-.5-.37-.78-.49-.63-.92,1.65-1.56,1.07-3.85.92-5.94-.2-.59-.63-1.37-1.46-1.22-3.26.83-6.28,2.14-9.69,2.68-1.27.43-3,.14-3.81,1.46a1.25,1.25,0,0,0,.5,1.6,2.16,2.16,0,0,0,1.89.05,1.67,1.67,0,0,0,.74-2c.29-.54.92-.44,1.45-.54a1.15,1.15,0,0,1,1,.88l0,9.6v.06h3.18v-4.55a.9.9,0,0,1,.59-.92c.63-.2,1.73-.54,2.12.34v5.12Zm-4.74-6.9a2.68,2.68,0,0,1-2,.53l-.1-5c.58-.39,2-1.06,2.33.1C153.46,305.71,153.76,307.32,153.12,308.59Z" transform="translate(-110.44 -181.21)"/><path class="cls-13" d="M169,300.22c-.63-4.12-6.24-2-8.47-1a4.43,4.43,0,0,0-2.19,3.75c0,3.9-.3,10.5.43,11.45a3.42,3.42,0,0,0,2.07,1,19.25,19.25,0,0,0,5.41,0h0l.86-.13c1.79-.7,1.84-2.25,1.9-3.87Zm-6.78-.13a1.39,1.39,0,0,1,1.28-.9,1.09,1.09,0,0,1,1.3.68v13.54c.05.73,0,1.51-1.1,1.5s-1.57-.07-1.62-1C162.1,314,162.13,303.52,162.23,300.09Z" transform="translate(-110.44 -181.21)"/><path class="cls-14" d="M179.24,305.05c0-.68.5-.17,1.17-1.61.5-1.24.21-5.62-1-6.09-.92-.83-9.06,1.61-9.06,1.61v16.53h8.95a.69.69,0,0,0,.26-.06c.34-.16,1-.76,1.4-3C181,309.92,181.48,306.6,179.24,305.05Zm-4.79-6s2.53-.94,2.7.16c.12.44.2,5-.21,5.07-.17.38-2.49.84-2.49.84Zm2.72,7.44a61.83,61.83,0,0,1,0,7.59c.15.67-2.66.43-2.66.43v-8.16S176.78,305.47,177.17,306.45Z" transform="translate(-110.44 -181.21)"/><path class="cls-15" d="M195,315.49a.88.88,0,0,1-.19-.06h0c-.48-.21-1.73-1-1.58-3.57-.11-6.1-2.08-6.67-2.08-6.67a5.51,5.51,0,0,0,1-1.17c1.1-1.33,1.18-6.36-1.07-8.11-3.51-3.08-18.49-4.18-21,.13a1.37,1.37,0,0,0,1.61,2,4.68,4.68,0,0,0,1.23-.4l.47-.41c.51-.92-.09-1.45.59-1.9.95-.81,4.48-1.66,6.62-1.21a1.57,1.57,0,0,1,1.27,1.07v20.33h4.32v-11s2.45.5,2.44,1.46c.33.62.23,6.29.44,9.51h0v.06Zm-6.28-11.74c-.32.45-2.35-.45-2.35-.45-.25.13-.2-1.79-.2-3.78,0-1.69,0-3.43,0-4s2.15.08,2.54.81A65.59,65.59,0,0,1,188.75,303.75Z" transform="translate(-110.44 -181.21)"/><path class="cls-16" d="M217.08,305.15a1.65,1.65,0,0,0-1.31-1.42,3.27,3.27,0,0,0-3.26.54c-.95.86-1.37,2-2.19,2.29-1-1.17-1.23-2.83-2.1-4.14l-5-2c-2.7-1.52-5.17-2.63-7.9-2.63-1.51.44-1.33,2-1.32,3.51v8.57c.1,2.49-.08,3.41,1.19,4.62a4.65,4.65,0,0,0,2.8.94,10.26,10.26,0,0,0,1.92,0c1.51-.11,2.92-.54,3.5-1.31,1-2.09.61-4.81.64-7.13,0-1.75-.44-3.55-.39-5.11l3.8,6.58,0,7v.06h3.74v-.05c0-.65-.2-6.85.86-9.12.83-1.59,1.36-1.63,2-1.55.44.14.35.58.54.92a1.26,1.26,0,0,0,1.85.88A1.37,1.37,0,0,0,217.08,305.15Zm-18.61,9.1a2.73,2.73,0,0,1-.81-2.48v-12c1.22-.59,2.5-.14,2.47.39v13.73C200,314.5,199.06,314.49,198.47,314.25Z" transform="translate(-110.44 -181.21)"/><polygon class="cls-17" points="106.45 50.98 111.32 50.98 111.32 69.78 106.45 67.34 106.45 50.98"/><polygon class="cls-18" points="81.42 50.98 86.29 50.98 86.29 57.23 81.42 54.79 81.42 50.98"/><polygon class="cls-19" points="89.76 50.98 94.64 50.98 94.64 61.41 89.76 58.97 89.76 50.98"/><polygon class="cls-20" points="98.11 50.98 102.98 50.98 102.98 65.6 98.11 63.16 98.11 50.98"/><path class="cls-21" d="M218.22,288.42a23.68,23.68,0,0,0,4.1,2.42c7.51,2.79,15.56.52,20.34-1.88l0,26.47.08,60.76A33.25,33.25,0,0,1,232,396.43a28.61,28.61,0,0,1-5.93,4l-46.31,23L133,400.17a41.87,41.87,0,0,1-5.11-3.73A28.92,28.92,0,0,1,117.34,376l0-60.53,0-25.52c6.82,2.35,16.17,3.76,23.23,0,.7-.46,1.41-1,2.09-1.51,3.86-3.08,7.19-8.21,7.19-13.2l-.82-1.75a45.8,45.8,0,0,1-25.86-40.91c.47-15.29,7.23-29.68,21.16-38.09,11.36-6.71,24.26-8.31,35.64-4.72,22.34,7.05,42.11,21,42.11,21v18.34H191.79v-8.35l28.72,0S188.15,198,168,196.8c-12.23,0-23.05,5.17-30.34,15.76-6.34,8.69-8,22.1-4,32.44,3.76,10.35,13.87,19.28,24,22.81A26.68,26.68,0,0,1,155.56,285c14.81-8.93,34.56-6.82,48.66.94l.71-.94c-2.59-4.94-4.47-11.05-2.83-17.16,1.65-6.58,12.26-15.9,12.26-15.9l7.5,3.44s-12.23,10.81-11.53,19c-.18,5.63,3.42,10.71,7.89,14m15.66,27v-14c-17.63,1.41-32.21-8.7-47.73-12.7-.51-.11-1-.22-1.53-.3a32,32,0,0,0-10.52,0c-16.38,2.61-30.66,15.95-48.41,12.94v14.07c0,6.8,0,15.5,0,24.77.06,22.93,0,36.7,0,36.7,1,6.81,4.49,11.05,9.89,14.57l9.85,5,34.07,17.19,33.76-17.19,8.37-4.26c6.11-3.76,11.29-9.87,12.23-16.69Z" transform="translate(-110.44 -181.21)"/><polygon class="cls-22" points="86.29 57.23 86.29 56.36 81.42 53.92 81.42 54.79 86.29 57.23"/><path class="cls-22" d="M210.32,273.26c.4-8.06,11.54-17.91,11.54-17.91l-.63-.29C218.78,257.37,210,266.19,210.32,273.26Z" transform="translate(-110.44 -181.21)"/><path class="cls-22" d="M168,196.8c17.77,1,46.35,19.73,52.49,23.89v-.86S188.15,197.09,168,195.94c-12.23,0-23.05,5.17-30.34,15.75-4.07,5.58-6.19,13.09-6.15,20.49a34.78,34.78,0,0,1,6.15-19.62C145,202,155.79,196.8,168,196.8Z" transform="translate(-110.44 -181.21)"/><path class="cls-22" d="M125.74,359.65c0,10.49,0,16.38,0,16.38v0C125.72,374,125.74,368.32,125.74,359.65Z" transform="translate(-110.44 -181.21)"/><path class="cls-22" d="M186.15,287.86q-.77-.17-1.53-.3a32,32,0,0,0-10.52,0c-16.38,2.61-31.32,16-49.07,13l.66,14v-13.2c17.75,3,32-10.33,48.41-12.94a32,32,0,0,1,10.52,0c.51.08,1,.19,1.53.3,15.52,4,30.1,14.11,47.73,12.7l.66-.72C216.91,302.12,201.67,291.86,186.15,287.86Z" transform="translate(-110.44 -181.21)"/><polygon class="cls-22" points="102.98 65.6 102.98 64.73 98.11 62.29 98.11 63.16 102.98 65.6"/><path class="cls-22" d="M149,273.45l.79,1.68c0-.26.66,1.25.66,1L149,272.58a45.8,45.8,0,0,1-25.85-40.3c0,.09,0,.17,0,.26A45.8,45.8,0,0,0,149,273.45Z" transform="translate(-110.44 -181.21)"/><polygon class="cls-22" points="94.64 61.41 94.64 60.55 89.76 58.1 89.76 58.97 94.64 61.41"/><path class="cls-22" d="M232,395.57a28.57,28.57,0,0,1-5.93,4l-46.31,23L133,399.31a43,43,0,0,1-5.11-3.73,28.94,28.94,0,0,1-10.53-20.49l0-60.53,0-24.65h0l0,25.52,0,60.53a28.92,28.92,0,0,0,10.53,20.48,41.87,41.87,0,0,0,5.11,3.73l46.79,23.28,46.31-23a28.61,28.61,0,0,0,5.93-4,33.25,33.25,0,0,0,10.77-20.24v-.86A33.3,33.3,0,0,1,232,395.57Z" transform="translate(-110.44 -181.21)"/><rect class="cls-22" x="81.35" y="47" width="30.23" height="0.87"/><polygon class="cls-22" points="111.32 69.78 111.32 68.92 106.45 66.47 106.45 67.34 111.32 69.78"/><path class="cls-11" d="M225.1,279.15h-1.43v-6.7h2.5c1.73,0,2.75.5,2.75,2a1.57,1.57,0,0,1-1.61,1.75l1.71,2.92h-1.7l-1.55-2.81h-.67Zm1.27-3.95c.64,0,1-.13,1-.87s-.74-.74-1.28-.74h-1v1.61Z" transform="translate(-110.44 -181.21)"/><polygon class="cls-23" points="107.07 187.84 82.03 187.84 82.03 212.88 102.91 212.88 107.07 210.78 107.07 187.84"/><polygon class="cls-23" points="31.96 187.84 31.96 211.25 35.2 212.88 56.99 212.88 56.99 187.84 31.96 187.84"/><rect class="cls-23" x="31.96" y="138.11" width="25.04" height="24.7"/><rect class="cls-23" x="82.03" y="138.11" width="25.04" height="24.7"/><path class="cls-23" d="M215,344h2.53V345l-24.1,24.1h-.94v-2.52Zm16.59,0v-2.28L229.3,344ZM142.4,388l-3,3c.25.13.5.28.77.41l1.51.77.68-.68Zm16,12.59,2.3,1.16,6.69-6.68v-1h-2.52ZM222.14,344h3.47l6-6v-3.46Zm-54.7,47.55v2.52h.94L192.47,370v-.95H190Zm50.07-50.08V344h.94l13.13-13.14v-3.47ZM167.44,320v3.47l4.11-4.12h-3.47Zm-25,25v3.47l4.46-4.46h-3.47Zm0-21.48L128.23,337.7v3.48L142.4,327Zm25,3.6v3.47l11.27-11.28h-3.47Zm-25-7.29v-.52h-3l-11.2,11.2V334Zm-14.13,3.5v3.47l7.49-7.49h-3.46Zm39.17,14.42,18.43-18.44H182.4l-15,15Zm50.07,50.15,14-14v-3.47l-14,14Zm-42,6.18,16.93-16.93v-3.47l-20.39,20.4Zm28.64,0h-3.47l-8.24,8.24v2.33l2.31-1.17Zm-11.71-9.77v-3.47l-13.24,13.24h3.47ZM163.21,403l2.3,1.17,1.93-1.93v-3.47ZM192.47,388l-6.08,6.08h3.47l2.61-2.61Zm1.08,6.08-1.08,1.08v3.47l4.55-4.55Zm37-15.57-13.09,13.09V392l.06,0C223.76,388.82,228.63,383.56,230.6,378.52Zm-30-9.47,16.94-16.94v-3.46l-20.4,20.4Zm7.3,25-5.62,5.62,7-3.55,2.06-2.07Zm9.64-27.66V363l-6.08,6.08h3.46Zm0,3.7v3.46l4.54-4.54h-3.47Zm0,7.16v3.46l11.7-11.7h-3.47Zm0-21.48-13.24,13.24h3.46l9.78-9.78ZM142.4,373.65l-11,11a23.21,23.21,0,0,0,1.68,1.79l9.28-9.28Zm25-7.25v-3.47l-6.13,6.12h3.47ZM175.49,344l17-17v-3.46L172,344Zm-8.05,15.22v-3.47l-13.28,13.28h3.46Zm0,10.85v3.47l4.5-4.51h-3.47Zm0,10.63,11.66-11.67h-3.47l-8.19,8.2Zm25-50L179.19,344h3.46l9.82-9.83Zm-42,38.32,17-17v-3.47L147,369.05Zm32.33,0-15.35,15.36v3.47l18.82-18.83Zm-28.73,25H150.6l-1.66,1.67,2.3,1.16Zm7.16,0h-3.46l-4.07,4.07,2.3,1.16Zm-15.58,0,.84.43.43-.43Zm46.83-52.73v-3.47L186.35,344h3.46ZM142.4,384.28v-3.47l-7.3,7.31c.63.5,1.31,1,2,1.44ZM207.82,344l-15.35,15.35v3.47L211.29,344Zm-15.35-24.15v-.55h-2.91l-22.12,22.13V344h.89ZM157.71,344,142.4,359.33v3.47L161.18,344Zm-29.58,25v.86l.86-.86Zm14.27-13.41L154,344h-3.47l-8.15,8.15Zm-6.26,13.41h-3.46l-4.56,4.57,0,3.48Zm6.26-27.73v-3.47L136.23,344h3.47Zm50.07,14.36L204.13,344h-3.47l-8.19,8.19ZM142.4,334.16v-3.47L129.08,344h3.46Zm75.11-3.53,11.31-11.31h-3.47l-7.84,7.85Zm-50.07,14.29V344h-2.57L142.4,366.49v2.56h.9Zm25,.13v3.47L197,344H193.5Zm39.12-21.34v-3.47l-14.08,14.09v3.46ZM217.51,320v3.46l4.15-4.15h-3.47ZM142.4,370v-.91h-2.56l-11.12,11.12a13.14,13.14,0,0,0,1.16,2.31Z" transform="translate(-110.44 -181.21)"/><path class="cls-24" d="M128.29,319.32l-.19,57.85a9.15,9.15,0,0,0,1,3.87l.18-60.73H230.6l0,58.33a12.75,12.75,0,0,0,1-4.67l0-54.65Z" transform="translate(-110.44 -181.21)"/><path class="cls-25" d="M217.12,391.08l-37.59,19-38.88-19.63a35.61,35.61,0,0,1-10.85-8.12,25.68,25.68,0,0,0,10.41,9l39.32,19.85,38-19.24A29.15,29.15,0,0,0,229,381.66,37.64,37.64,0,0,1,217.12,391.08Z" transform="translate(-110.44 -181.21)"/><path class="cls-26" d="M221.1,233.05V233h-3.54v15.89h0l-.66-.33V232.18h4.86V251l-.66-.33h0v-17.6Zm-8.33.06v13.36h0l.66.33V232.18h-4.87v12.19l.66.33h0V233h3.55v.13Zm-8.35,0v9.18h0l.66.33V232.18H200.2v8l.67.33h0V233h3.55v.13Zm-46.8,40.5v.8A27.24,27.24,0,0,1,155,285.82l-.28.58,1.22-.73a42.4,42.4,0,0,1,21.94-5.75,55,55,0,0,1,26.06,6.7l.51.28,1-1.33a26.23,26.23,0,0,1-3.25-11.65V273a17.6,17.6,0,0,1,.59-4.88c1.43-5.69,10-13.69,11.74-15.29l6.2,2.85,1.18-.32-7.5-3.44s-10.61,9.32-12.26,15.9c-1.64,6.11.24,12.22,2.83,17.16l-.71.94c-14.1-7.76-33.85-9.87-48.66-.94a26.68,26.68,0,0,0,2.11-17.16c-10.11-3.53-20.22-12.46-24-22.81-4-10.28-2.37-23.56,3.87-32.27l-.42.58a35.35,35.35,0,0,0-6.27,19.94,34.63,34.63,0,0,0,2.2,12.12c3.62,9.95,13.25,19.19,24,23.07a22.63,22.63,0,0,1,.52,5v.13Zm52.71.78c-.3-3.5,1.75-7.48,4.2-10.88-2.46,3.27-4.67,7.17-4.87,10.8a1.77,1.77,0,0,1,0,.23c-.15,5.2,2.89,10.63,8.16,14.54a24.72,24.72,0,0,0,4.22,2.5,22.09,22.09,0,0,0,7.69,1.34A30.14,30.14,0,0,0,242,290.14l0,25.42.09,60.72h0v.07h0v.06h0v.07h0v.07h0v.06h0v.07h0v.07h0v.06h0v.07h0V377h0V377h0v.07h0v.07h0v.06h0v.07a33.51,33.51,0,0,1-5.66,14.33,34.1,34.1,0,0,0,6.32-15.42l-.08-60.76,0-26.47c-4.78,2.4-12.83,4.67-20.34,1.88a23.68,23.68,0,0,1-4.1-2.42C213.75,285.1,210.15,280,210.33,274.39Zm-86.56-40.72h0v-.19h0v-.19h0v-.19h0v-.19h0v-.19c.5-16.14,8.09-29.82,20.84-37.52a45.38,45.38,0,0,1,23-6.49,40.28,40.28,0,0,1,12.06,1.83c20.56,6.49,39.16,19,41.65,20.73v10.26h0v.06h0v.06h0v6.59l.66.87V210.74s-19.77-14-42.11-21c-11.38-3.59-24.28-2-35.64,4.72-13.93,8.41-20.69,22.8-21.16,38.09a45.1,45.1,0,0,0,7.58,24.9A44.52,44.52,0,0,1,123.77,233.67ZM118,377,117.94,292h0v-.07h0v-.06h0v-.07h0v-.07h0v-.06h0v-.07h0v-.07h0v-.06h0v-.07h0v-.07h0v-.06h0v-.07h0v-.07h0V291h0V291A40.9,40.9,0,0,0,130.17,293a22.47,22.47,0,0,0,10.65-2.39c.8-.52,1.52-1,2.2-1.58,3.27-2.62,7.06-7.51,7.4-12.93l-.63-.92h0c0,5-3.33,10.12-7.19,13.2-.68.54-1.39,1.05-2.09,1.51-7.06,3.76-16.41,2.35-23.23,0l0,25.52,0,60.53a28.62,28.62,0,0,0,5.75,15.44A28.12,28.12,0,0,1,118,377Zm78.07-143.93v5h0l.66.34v-6.26h-4.86V236l.66.33h0V233h3.54v.13Zm24.44-12.42-28.72,0v8.35l.66-.87v-6.68l28.06,0ZM125,300.58v15.87c0,6.66,0,15,0,23.89,0,7.79,0,14.55,0,20.07v.93c0,8.23,0,13.7,0,15.76v0c1,6.45,4.13,11.08,10.18,15l0,0,44.25,22.32,34.06-17.33,8.37-4.26c7-4.31,11.69-10.73,12.58-17.2v-75l-.66.72v74.06c-.94,6.82-6.12,12.93-12.23,16.69l-8.37,4.26-33.76,17.19-34.07-17.19-9.85-5c-5.4-3.52-8.85-7.76-9.89-14.57,0,0,.06-13.77,0-36.7,0-9.27,0-18,0-24.77V301.36Z" transform="translate(-110.44 -181.21)"/><path class="cls-22" d="M202.14,273.55c-.17,4.42,1,7.73,2.79,11.42l.49.63A27.34,27.34,0,0,1,202.14,273.55Z" transform="translate(-110.44 -181.21)"/><path class="cls-22" d="M157.75,273.92a34.15,34.15,0,0,1-3.07,12.48c.17-.1.7-1.33.88-1.43A28,28,0,0,0,157.75,273.92Z" transform="translate(-110.44 -181.21)"/><path class="cls-22" d="M188.87,300.16c0-1.62,0-3.17-.1-3.43-.39-.73-2.51-1.34-2.54-.81a8.64,8.64,0,0,0,0,1,11.9,11.9,0,0,1,0-1.5c0-.53,2.15.08,2.54.81C188.84,296.55,188.87,298.39,188.87,300.16Zm4.37,11.93v.35a1,1,0,0,1,0-.17C193.25,312.21,193.24,312.15,193.24,312.09Zm-2.07-6.95a.92.92,0,0,1,.3.17,4.86,4.86,0,0,0,.68-.88,5.81,5.81,0,0,0,.74-3.42,5.36,5.36,0,0,1-.74,3A5.82,5.82,0,0,1,191.17,305.14Zm-37.81-.94c-.29-1.17-1.75-.5-2.33-.1v.46c.58-.4,2-1.06,2.32.1,0,.67.13,1.36.15,2C153.53,305.88,153.42,305,153.36,304.2Zm11.46,9.15V299.81a1.1,1.1,0,0,0-1.3-.68,1.41,1.41,0,0,0-1.28.9c-.1,3.43-.13,13.87-.13,13.87h0c0-2,.05-10.41.13-13.42a1.4,1.4,0,0,1,1.28-.89,1.09,1.09,0,0,1,1.3.68v13.54h0A1.93,1.93,0,0,0,164.82,313.35Zm38.82-11.52c0,.15,0,.31,0,.47l3.79,6.57v-.47ZM156,309.22a4.14,4.14,0,0,0,1.11-3.29,3.84,3.84,0,0,1-1.14,2.86A.43.43,0,0,0,156,309.22Zm41.67,2.51c0,.2,0,.4,0,.6a.76.76,0,0,0,0-.15Zm-11.46-10.4v-1.7C186.2,300.22,186.19,300.81,186.2,301.33Zm13.93,1.76v-3c0-.53-1.25-1-2.47-.39v.47c1.22-.59,2.5-.14,2.47.39v13.27h0ZM194,301.24c0-.24,0-.48,0-.72,0,.37,0,.75,0,1.13Zm-16.84-2.13c-.17-1.09-2.7-.16-2.7-.16v.47s2.53-.94,2.7.16a13.88,13.88,0,0,1,.09,2A19.42,19.42,0,0,0,177.15,299.11Zm17.68,16.73a2.38,2.38,0,0,1-.61-.41h-5.08v-.06h0c-.21-3.22-.11-8.88-.44-9.5,0-1-2.44-1.47-2.44-1.47v11h-4.32V295.1a1.59,1.59,0,0,0-1.27-1.07c-2.14-.45-5.67.4-6.62,1.22-.68.44-.08,1-.59,1.9l-.47.4a4.68,4.68,0,0,1-1.23.4,1.43,1.43,0,0,1-1.76-1,1.38,1.38,0,0,0,1.76,1.5A4.68,4.68,0,0,0,173,298l.47-.41c.51-.92-.09-1.45.59-1.9.95-.81,4.48-1.66,6.62-1.21a1.57,1.57,0,0,1,1.27,1.07V315.9h4.32v-11s2.45.5,2.44,1.46c.33.62.23,6.29.44,9.51h0v.06H195a.88.88,0,0,1-.19-.06Zm8.56-1.78c-.58.77-2,1.2-3.5,1.31a11.2,11.2,0,0,1-1.92,0,4.65,4.65,0,0,1-2.8-.94c-1.26-1.21-1.1-2.13-1.19-4.6v.44c.1,2.49-.08,3.41,1.19,4.62a4.65,4.65,0,0,0,2.8.94,10.26,10.26,0,0,0,1.92,0c1.51-.11,2.92-.54,3.5-1.31a10.45,10.45,0,0,0,.68-4.54A9.57,9.57,0,0,1,203.39,314.06Zm-59.08-6.64a2.13,2.13,0,0,1-1.89,0,1.3,1.3,0,0,1-.59-.85,1.26,1.26,0,0,0,.59,1.31,2.16,2.16,0,0,0,1.89.05,1.51,1.51,0,0,0,.78-1.67A1.34,1.34,0,0,1,144.31,307.42Zm72.77-1.9a1.19,1.19,0,0,1-.63,1,1.25,1.25,0,0,1-1.85-.88c-.19-.34-.1-.78-.54-.92-.68-.08-1.21,0-2,1.55s-.89,5.49-.88,7.63c0-2.19.15-5.6.88-7.16s1.36-1.63,2-1.55c.44.14.35.58.54.92a1.26,1.26,0,0,0,1.85.88,1.37,1.37,0,0,0,.63-1.41ZM179.24,305a.69.69,0,0,1,.13.11,2.47,2.47,0,0,0,1-1.25,6.26,6.26,0,0,0,.23-2.07,5.18,5.18,0,0,1-.23,1.6C179.74,304.82,179.29,304.31,179.24,305Zm28.18,10.44v.47h3.74v-.05c0-.08,0-.22,0-.41Zm-30.25-9c-.39-1-2.72-.14-2.72-.14v.47s2.33-.84,2.72.14c.05.14.09,1.8.09,3.53C177.27,308.51,177.23,306.55,177.17,306.39Zm-10,8.85-.86.13h0a20,20,0,0,1-5.41,0,3.37,3.37,0,0,1-2.07-1c-.4-.52-.51-2.74-.51-5.29,0,2.74.08,5.2.51,5.76a3.42,3.42,0,0,0,2.07,1,19.25,19.25,0,0,0,5.41,0h0l.86-.13c1.79-.7,1.84-2.25,1.9-3.87v-.45C169,313,168.91,314.55,167.12,315.24Zm-9.6.19h-4.06V310.3c-.39-.88-1.49-.54-2.12-.34a.91.91,0,0,0-.59.92v4.55h-3.18v-.06l0-9.6a1.14,1.14,0,0,0-1-.87c-.53.09-1.16,0-1.45.53,0,.13,0,.27,0,.41.31-.46.91-.39,1.41-.48a1.15,1.15,0,0,1,1,.88l0,9.6v.06h3.18v-4.55a.9.9,0,0,1,.59-.92c.63-.2,1.73-.54,2.12.34v5.12h4.4l-.07-.07A1.87,1.87,0,0,1,157.52,315.43Zm23.42-3c-.44,2.22-1.06,2.82-1.4,3a.69.69,0,0,1-.26.06h-8.95v.47h8.95a.69.69,0,0,0,.26-.06c.34-.16,1-.76,1.4-3,0-.89.11-1.88.1-2.85C181,310.83,181,311.65,180.94,312.39Z" transform="translate(-110.44 -181.21)"/><path class="cls-22" d="M275.4,222.82h-6.5v-15h33.4c13.9,0,23.6,8.1,23.6,22.5s-10.5,18.61-10.5,18.61v.2a9.9,9.9,0,0,1,4.4,4.3l4.5,8.6c1.1,2.1,2.9,2.3,4.9,2.3h1.2v15h-9.8c-5,0-7.8-.9-10.1-5.3l-8.4-16.1c-1.2-2.2-2.7-2.7-6.4-2.7h-2.4v24.1H275.4Zm24.1,17.41c5.3,0,8.1-3.11,8.1-8.81s-2.8-8.6-7.8-8.6h-6.5v17.41Z" transform="translate(-110.44 -181.21)"/><path class="cls-22" d="M370.9,206.62c21.6,0,37.41,16,37.41,36.51,0,21-15.81,37.4-37.41,37.4s-37.4-16.4-37.4-37.4C333.5,222.62,349.3,206.62,370.9,206.62Zm0,57.41c10.4,0,18.8-9,18.8-20.9,0-11.41-8.4-20-18.8-20s-18.8,8.6-18.8,20C352.1,255,360.5,264,370.9,264Z" transform="translate(-110.44 -181.21)"/><path class="cls-22" d="M420,222.82h-6.5v-15h31.3c14.3,0,24.3,6.4,24.3,18.7,0,8-4.6,13.21-8.3,15.21v.2c8.2,2.5,11.2,9.8,11.2,16.1,0,15.6-13,21.3-27.2,21.3H427.3c-5.1,0-7.3-2.2-7.3-7.3Zm25,12.7c4.2,0,6.1-3.2,6.1-6.6s-1.9-6.1-6.4-6.1h-6.8v12.7Zm-4.9,28.81h6.4c4.8,0,7.1-3.5,7.1-7.5s-2.2-7.3-7-7.3h-8.7v12.6A2,2,0,0,0,440.1,264.33Z" transform="translate(-110.44 -181.21)"/><path class="cls-22" d="M484.8,222.82h-6.5v-15h33.4c13.9,0,23.6,8.1,23.6,22.5s-10.5,18.61-10.5,18.61v.2a9.9,9.9,0,0,1,4.4,4.3l4.5,8.6c1.1,2.1,2.9,2.3,4.9,2.3h1.2v15H530c-5,0-7.8-.9-10.1-5.3l-8.4-16.1c-1.2-2.2-2.7-2.7-6.4-2.7h-2.4v24.1H484.8Zm24.1,17.41c5.3,0,8.1-3.11,8.1-8.81s-2.8-8.6-7.8-8.6h-6.5v17.41Z" transform="translate(-110.44 -181.21)"/><path class="cls-22" d="M580.3,206.62c21.6,0,37.4,16,37.4,36.51,0,21-15.8,37.4-37.4,37.4s-37.4-16.4-37.4-37.4C542.9,222.62,558.7,206.62,580.3,206.62Zm0,57.41c10.4,0,18.8-9,18.8-20.9,0-11.41-8.4-20-18.8-20s-18.8,8.6-18.8,20C561.5,255,569.9,264,580.3,264Z" transform="translate(-110.44 -181.21)"/><path class="cls-22" d="M639.3,248l-15.2-23c-1.3-2-1.4-2.2-3.6-2.2h-2.9v-15h9.8c4.4,0,6.8.7,9.2,4.8l7.3,12.3c2.7,4.6,4.3,8,4.3,8h.2s1.6-3.4,4.3-8l7.2-12.3c2.4-4.1,4.8-4.8,9.2-4.8h9.8v15H676c-2.2,0-2.3.2-3.6,2.2l-15.2,23v31.3H639.3Z" transform="translate(-110.44 -181.21)"/><path class="cls-22" d="M275.59,304.83h9.62v52.69h-9.62Z" transform="translate(-110.44 -181.21)"/><path class="cls-22" d="M307,304.83h9.4l8.8,27.83h.15V304.83H333v52.69h-7.48l-10.28-31.9h-.15v31.9H307Z" transform="translate(-110.44 -181.21)"/><path class="cls-22" d="M355.14,304.83h8.36c16.14,0,17.69,10.36,17.69,26.34,0,15.25-1.26,26.35-16.13,26.35h-9.92Zm9.62,44.55c6.07-.07,6.37-2.29,6.37-18.28s-.3-18.06-6.37-18.13Z" transform="translate(-110.44 -181.21)"/><path class="cls-22" d="M402.57,304.83h9.62v40.78c0,2.36.52,4.81,3.33,4.81s3.56-2.3,3.56-4.81V304.83h8.14v39.52c0,10.36-4.59,14.21-12.29,14.21-7.4,0-12.36-3.85-12.36-14.21Z" transform="translate(-110.44 -181.21)"/><path class="cls-22" d="M455.93,342.28c0,3,0,8.14,4.14,8.14,3.18,0,4.29-3,4.29-5.11,0-9.4-17.46-11.55-17.46-27.16,0-7.92,4.29-14.36,12.43-14.36,8.66,0,12,6.59,12.21,16.06H463c0-3,0-7.92-3.85-7.92-2.29,0-3.63,1.93-3.63,4.81,0,9,17.47,12,17.47,27.31,0,8.07-4.59,14.51-13.25,14.51-10.28,0-12.36-9-12.36-16.28Z" transform="translate(-110.44 -181.21)"/><path class="cls-22" d="M497.44,313h-8.29v-8.14h26.2V313h-8.29v44.55h-9.62Z" transform="translate(-110.44 -181.21)"/><path class="cls-22" d="M534,304.83h10.8c9.18,0,15.25,3.85,15.25,14.95,0,4.44-1.34,10.36-5.63,12.88l5.7,24.86h-9.69l-4.52-22.64h-2.29v22.64H534Zm9.62,22.35h1.92c3.55,0,4.89-3.55,4.89-7.33,0-5.7-2.08-7.32-5.33-7.32h-1.48Z" transform="translate(-110.44 -181.21)"/><path class="cls-22" d="M580,304.83h9.62v52.69H580Z" transform="translate(-110.44 -181.21)"/><path class="cls-22" d="M611.77,304.83h21.76V313H621.39v13.47h9V335h-9v14.36h12.66v8.14H611.77Z" transform="translate(-110.44 -181.21)"/><path class="cls-22" d="M660.68,342.28c0,3,0,8.14,4.15,8.14,3.18,0,4.29-3,4.29-5.11,0-9.4-17.46-11.55-17.46-27.16,0-7.92,4.29-14.36,12.43-14.36,8.66,0,12,6.59,12.21,16.06h-8.59c0-3,0-7.92-3.84-7.92-2.3,0-3.63,1.93-3.63,4.81,0,9,17.46,12,17.46,27.31,0,8.07-4.58,14.51-13.24,14.51-10.29,0-12.36-9-12.36-16.28Z" transform="translate(-110.44 -181.21)"/><rect class="cls-22" x="156.86" y="108.97" width="409.26" height="3"/><path class="cls-22" d="M267.3,372.52H658c10.65,0,16.71,15.77,23.52,22.58-6.41,6.41-11.86,22.58-23.52,22.58H267.3Zm28.11,33.21h14.17v-4h-9.83V385.63h-4.34Zm23.08,0h15v-3.94H322.77v-4.22h9.3v-3.94h-9.3v-4.09h10.57v-3.93H318.49Zm22.82,0h4.42l1.81-4.51h8.34l1.8,4.51h4.54l-8.46-20.27h-4Zm7.78-8.42,2.62-6.53,2.62,6.53Zm21.81,8.42h7.69a11.33,11.33,0,0,0,4.25-.77,10.24,10.24,0,0,0,3.31-2.13,9.48,9.48,0,0,0,2.16-3.19,10.25,10.25,0,0,0,.76-4v-.06a10.11,10.11,0,0,0-.76-3.95,9.44,9.44,0,0,0-2.16-3.18,10,10,0,0,0-3.31-2.11,11.32,11.32,0,0,0-4.25-.76H370.9Zm4.34-4V389.6h3.35a6.32,6.32,0,0,1,2.42.45,5.57,5.57,0,0,1,1.89,1.25,5.41,5.41,0,0,1,1.21,1.91,6.9,6.9,0,0,1,.42,2.46v.06a6.81,6.81,0,0,1-.42,2.43,5.5,5.5,0,0,1-1.21,1.91A5.24,5.24,0,0,1,381,401.3a6.51,6.51,0,0,1-2.42.44Zm23.52,4h4.34V385.61h-4.34Zm14.91,0H418V392.94l9.55,12.79h3.7V385.61h-4.29V398l-9.24-12.39h-4Zm42.21-.59a14.55,14.55,0,0,0,3.61-2.25v-8.74h-8.57V398h4.37v2.89a6.62,6.62,0,0,1-4.09,1.22,6.07,6.07,0,0,1-2.39-.47,5.74,5.74,0,0,1-1.91-1.34,6.21,6.21,0,0,1-1.24-2,7.18,7.18,0,0,1-.43-2.55v-.05a6.77,6.77,0,0,1,.43-2.44,6.2,6.2,0,0,1,1.22-2,5.83,5.83,0,0,1,1.8-1.35,4.88,4.88,0,0,1,2.21-.51,6.74,6.74,0,0,1,2.87.54,9.38,9.38,0,0,1,2.29,1.5l2.73-3.36a13.51,13.51,0,0,0-1.58-1.18,9.39,9.39,0,0,0-1.74-.86,11.05,11.05,0,0,0-2-.53,13.7,13.7,0,0,0-2.41-.19,10.29,10.29,0,0,0-4.13.82,10.08,10.08,0,0,0-5.43,5.55,10.42,10.42,0,0,0-.78,4v.06a11,11,0,0,0,.76,4.14,9.84,9.84,0,0,0,2.13,3.27,9.72,9.72,0,0,0,3.27,2.16,11,11,0,0,0,4.21.78A11.58,11.58,0,0,0,455.88,405.14Zm32.09.59h4.34v-16h6v-4.08H482v4.08h6Zm19.3,0h4.34v-8.08h8v8.08H524V385.61h-4.33v8h-8v-8h-4.34Zm27.05,0h15v-3.94h-10.7v-4.22h9.3v-3.94h-9.3v-4.09h10.56v-3.93H534.32Zm43.82.15h3.77l4.46-13.17,4.45,13.17h3.77l6.74-20.27h-4.54l-4.08,13.62-4.43-13.68h-3.72l-4.42,13.68-4.09-13.62h-4.64Zm27.81-.15h4.42l1.81-4.51h8.34l1.8,4.51h4.54l-8.45-20.27h-4Zm7.78-8.42,2.62-6.53,2.62,6.53ZM638,405.73h4.34v-8l7.58-12.1H645l-4.79,8.08-4.71-8.08h-5.07L638,397.8Z" transform="translate(-110.44 -181.21)"/><path class="cls-27" d="M249.31,315.42l-.05-37.15L242.66,289l0,26.47.08,60.76A33.25,33.25,0,0,1,232,396.43a28.61,28.61,0,0,1-5.93,4l-46.31,23-.22,7.34L229,406.32a35.14,35.14,0,0,0,7.31-4.9,40,40,0,0,0,13-24.29l.06-.47Z" transform="translate(-110.44 -181.21)"/></svg>